<?xml version="1.0"?>
<svg xmlns="http://www.w3.org/2000/svg" xmlns:xlink="http://www.w3.org/1999/xlink" version="1.1" id="Capa_1" x="0px" y="0px" width="512px" height="512px" viewBox="0 0 284.929 284.929" style="enable-background:new 0 0 284.929 284.929;" xml:space="preserve"><g><script xmlns="" class="__REQUESTLY__SCRIPT active-path" style="">(function(namespace) {
  window[namespace] = window[namespace] || {};
  window[namespace].responseRules = {};

  let open = XMLHttpRequest.prototype.open;
  XMLHttpRequest.prototype.open = function(method) {
    this.addEventListener('readystatechange', function() {
      if (this.readyState === 4 &amp;&amp; window[namespace].responseRules.hasOwnProperty(this.responseURL)) {
        const responseRule = window[namespace].responseRules[this.responseURL];
        const {response, id} = responseRule;
        const responseType = this.responseType;
        let customResponse;

        customResponse = response.type === 'code' ? responseRule.evaluator({
            method,
            url: this.responseURL,
            requestHeaders: this.requestHeaders,
            requestData: this.requestData,
            responseType: this.responseType,
            response: this.response
          }) : response.value;

        Object.defineProperty(this, 'response', {
          get: function () {
            if (response.type === 'static' &amp;&amp; responseType === 'json') {
              return JSON.parse(customResponse);
            }
            return customResponse;
          }
        });

        if (responseType === '' || responseType === 'text') {
          Object.defineProperty(this, 'responseText', {
            get: function () {
              return customResponse;
            }
          });
        }

        window.postMessage({
          from: 'requestly',
          type: 'response_rule_applied',
          id
        }, window.location.href);
      }
    }, false);
    open.apply(this, arguments);
  };

  let send = XMLHttpRequest.prototype.send;
  XMLHttpRequest.prototype.send = function(data) {
    this.requestData = data;
    send.apply(this, arguments);
  };

  let setRequestHeader = XMLHttpRequest.prototype.setRequestHeader;
  XMLHttpRequest.prototype.setRequestHeader = function(header, value) {
    this.requestHeaders = this.requestHeaders || {};
    this.requestHeaders[header] = value;
    setRequestHeader.apply(this, arguments);
  }
})('__REQUESTLY__')</script><g>
	<path d="M282.082,195.285L149.028,62.24c-1.901-1.903-4.088-2.856-6.562-2.856s-4.665,0.953-6.567,2.856L2.856,195.285   C0.95,197.191,0,199.378,0,201.853c0,2.474,0.953,4.664,2.856,6.566l14.272,14.271c1.903,1.903,4.093,2.854,6.567,2.854   c2.474,0,4.664-0.951,6.567-2.854l112.204-112.202l112.208,112.209c1.902,1.903,4.093,2.848,6.563,2.848   c2.478,0,4.668-0.951,6.57-2.848l14.274-14.277c1.902-1.902,2.847-4.093,2.847-6.566   C284.929,199.378,283.984,197.188,282.082,195.285z" data-original="#000000" class="active-path" fill="#E6858D"/>
</g></g> </svg>
